<svg width="40" height="40" viewBox="0 0 40 40" fill="none" xmlns="http://www.w3.org/2000/svg">
<g clip-path="url(#clip0_236_198)">
<path d="M38.4075 7.47919C38.0122 6.99637 37.4205 6.71575 36.7964 6.71575H9.66131L8.7367 3.53942V3.54004C8.31225 2.12004 7.14756 1.04418 5.69897 0.733794L2.38131 0.0234034C1.82014 -0.0972997 1.26702 0.260825 1.14624 0.822622C1.02624 1.38434 1.38374 1.93754 1.94624 2.05754L5.26256 2.76864C5.96819 2.91981 6.536 3.44379 6.74295 4.13629L12.8052 24.9603C12.6687 25.024 12.5366 25.0929 12.4093 25.1692C11.756 25.5586 11.2319 26.1051 10.8805 26.7432C10.5442 27.3494 10.3658 28.0365 10.3486 28.7456H10.3459V28.8536H10.3486C10.3619 29.4075 10.4799 29.9388 10.6848 30.4236C11.0131 31.199 11.5583 31.855 12.2455 32.3193C12.932 32.7842 13.767 33.0568 14.6558 33.0561H34.1533C34.7284 33.0561 35.194 32.5905 35.194 32.0161C35.194 31.4418 34.7283 30.9761 34.1533 30.9761L14.6558 30.9755C14.3454 30.9755 14.0549 30.9132 13.7883 30.8011C13.3897 30.6326 13.0467 30.3487 12.8066 29.9918C12.5758 29.6489 12.4392 29.245 12.4286 28.802C12.4405 28.2733 12.609 27.8143 12.9047 27.4475C13.058 27.2585 13.2469 27.0927 13.4765 26.9554C13.7033 26.82 13.9707 26.7126 14.2844 26.645L33.8813 23.4553C35.1615 23.2464 36.1802 22.2674 36.4389 20.9958L38.8359 9.21153V9.21028C38.8637 9.07364 38.8771 8.93434 38.8771 8.79637C38.8771 8.3202 38.7138 7.85465 38.4075 7.47919ZM34.4 20.5814C34.3137 21.0059 33.9741 21.3322 33.547 21.4012L14.8229 24.4497L10.2662 8.79645H36.7964H36.7971L34.4 20.5814Z" fill="#8B1A2F" stroke="black" stroke-width="0.00064"/>
<path d="M17.0634 34.7488C16.6064 34.4397 16.05 34.2574 15.4583 34.2581C15.0636 34.2581 14.6836 34.3382 14.34 34.4842C13.824 34.7024 13.3876 35.0652 13.0778 35.5235C12.7681 35.9806 12.5863 36.537 12.5877 37.1287C12.587 37.5227 12.6673 37.9027 12.8132 38.2463C13.032 38.7631 13.3941 39.1995 13.8519 39.5085C14.3095 39.819 14.8666 40.0001 15.4583 40.0001C15.8523 40.0001 16.2317 39.9198 16.5752 39.7739C17.092 39.5557 17.5284 39.1922 17.8381 38.7345C18.1472 38.2775 18.3289 37.7204 18.3289 37.1288C18.3289 36.7349 18.248 36.3555 18.1027 36.0112C17.8839 35.4943 17.5211 35.0579 17.0634 34.7488ZM16.5248 37.579C16.4373 37.7859 16.2894 37.9644 16.1044 38.0891C15.9186 38.2138 15.7011 38.286 15.4583 38.2867C15.2958 38.286 15.1452 38.2542 15.0079 38.1952C14.8016 38.109 14.6225 37.9604 14.4978 37.776C14.3731 37.5896 14.3009 37.3714 14.3002 37.1286C14.3009 36.9667 14.3333 36.8169 14.391 36.6783C14.4779 36.472 14.6265 36.2936 14.8115 36.1683C14.9973 36.0436 15.2155 35.9719 15.4582 35.9713C15.6201 35.9713 15.7699 36.0038 15.9079 36.0621C16.1148 36.149 16.2926 36.297 16.4173 36.4827C16.5427 36.6684 16.6149 36.886 16.6149 37.1286C16.6151 37.2911 16.5826 37.441 16.5248 37.579Z" fill="#8B1A2F" stroke="black" stroke-width="0.00064"/>
<path d="M32.808 34.7488C32.3504 34.4397 31.7939 34.2574 31.2023 34.2581C30.8083 34.2581 30.4282 34.3382 30.0846 34.4842C29.568 34.7024 29.1315 35.0652 28.8218 35.5235C28.5128 35.9806 28.3311 36.537 28.3311 37.1287C28.3311 37.5227 28.412 37.9027 28.5572 38.2463C28.7754 38.7631 29.1389 39.1995 29.5966 39.5092C30.0536 39.819 30.6107 40.0001 31.2024 40.0001C31.5963 40.0001 31.9764 39.9198 32.32 39.7739C32.836 39.5557 33.2724 39.1922 33.5821 38.7345C33.8918 38.2775 34.0736 37.7204 34.0729 37.1288C34.0729 36.7349 33.9927 36.3555 33.8468 36.0112C33.6278 35.4943 33.2657 35.0579 32.808 34.7488ZM32.2688 37.579C32.1818 37.7859 32.0333 37.9644 31.8489 38.0891C31.6632 38.2138 31.4443 38.286 31.2023 38.2867C31.0398 38.286 30.8899 38.2542 30.7519 38.1952C30.545 38.109 30.3672 37.9604 30.2425 37.776C30.1165 37.5896 30.0449 37.3714 30.0449 37.1286C30.0449 36.9667 30.0768 36.8169 30.1351 36.6783C30.2226 36.472 30.3705 36.2936 30.5556 36.1683C30.7413 36.0436 30.9595 35.9719 31.2023 35.9713C31.3648 35.9713 31.5146 36.0038 31.6526 36.0621C31.8589 36.149 32.0374 36.297 32.162 36.4827C32.2867 36.6684 32.359 36.886 32.3597 37.1286C32.3596 37.2911 32.3271 37.441 32.2688 37.579Z" fill="#8B1A2F" stroke="black" stroke-width="0.00064"/>
<path d="M16.3843 11.0953C16.2145 10.511 15.6029 10.176 15.0186 10.3464C14.4343 10.5169 14.1 11.1285 14.2698 11.7121L17.1232 21.4821C17.2943 22.0657 17.9058 22.4014 18.4895 22.2303C19.0732 22.0604 19.4088 21.4482 19.2377 20.8639L16.3843 11.0953Z" fill="#8B1A2F" stroke="black" stroke-width="0.00064"/>
<path d="M21.2023 11.0768C21.0326 10.4925 20.421 10.1575 19.8367 10.3274C19.2523 10.4985 18.9174 11.11 19.0879 11.6937L21.7343 20.7552C21.9054 21.3396 22.517 21.6745 23.1006 21.5041C23.6843 21.3336 24.0199 20.7221 23.8488 20.1377L21.2023 11.0768Z" fill="#8B1A2F" stroke="black" stroke-width="0.00064"/>
<path d="M26.021 11.0583C25.8505 10.474 25.2389 10.139 24.6553 10.3101C24.071 10.48 23.736 11.0922 23.9065 11.6757L26.352 20.0502C26.5224 20.6346 27.1346 20.9695 27.7183 20.7991C28.302 20.6286 28.6376 20.0164 28.4664 19.4327L26.021 11.0583Z" fill="#8B1A2F" stroke="black" stroke-width="0.00064"/>
<path d="M30.8381 11.0388C30.6684 10.4545 30.0562 10.1202 29.4718 10.2901C28.8881 10.4612 28.5532 11.0727 28.7236 11.6564L30.9549 19.298C31.126 19.8823 31.7375 20.2173 32.3212 20.0468C32.9049 19.8757 33.2405 19.2648 33.07 18.6805L30.8381 11.0388Z" fill="#8B1A2F" stroke="black" stroke-width="0.00064"/>
</g>
<defs>
<clipPath id="clip0_236_198">
<rect width="40" height="40" fill="white"/>
</clipPath>
</defs>
</svg>
