<svg width="20" height="20" viewBox="0 0 20 20" fill="none" xmlns="http://www.w3.org/2000/svg">
<path fill-rule="evenodd" clip-rule="evenodd" d="M4.33888 9.66577C4.71888 10.0364 5.33535 10.0364 5.71535 9.66577V7.63754H17.0577C18.0318 7.63754 18.8224 6.86107 18.8224 5.90577C18.8224 4.95048 18.0318 4.17401 17.0577 4.17401H5.71535V2.05754C5.33535 1.6846 4.71888 1.6846 4.33888 2.05754L1.42123 5.24342C1.04123 5.61518 1.04123 6.21754 1.42123 6.59166L4.33888 9.66577Z" fill="#8B1A2F"/>
<path fill-rule="evenodd" clip-rule="evenodd" d="M18.5389 13.3293L15.5118 10.3434C15.1318 9.96692 14.5153 9.96692 14.1342 10.3434V12.3799H3.03888C2.06476 12.3799 1.27417 13.161 1.27417 14.1222C1.27417 15.0834 2.06476 15.8646 3.03888 15.8646H14.1342V17.9022C14.5153 18.2763 15.1318 18.2763 15.5118 17.9022L18.5389 14.9163C18.9177 14.5422 18.9177 13.7034 18.5389 13.3293Z" fill="#8B1A2F"/>
</svg>
